Hind-Bold.ufo
<glyph name="exclam" format="1">
  <advance width="289"/>
  <unicode hex="0021"/>
  <outline>
    <contour>
      <point x="214" y="236" type="line"/>
      <point x="214" y="674" type="line"/>
      <point x="75" y="674" type="line"/>
      <point x="75" y="236" type="line"/>
    </contour>
    <contour>
      <point x="194" y="-8"/>
      <point x="234" y="32"/>
      <point x="234" y="83" type="curve" smooth="yes"/>
      <point x="234" y="134"/>
      <point x="194" y="174"/>
      <point x="143" y="174" type="curve" smooth="yes"/>
      <point x="92" y="174"/>
      <point x="52" y="134"/>
      <point x="52" y="83" type="curve" smooth="yes"/>
      <point x="52" y="32"/>
      <point x="92" y="-8"/>
      <point x="143" y="-8" type="curve" smooth="yes"/>
    </contour>
  </outline>
</glyph>
<glyph name="parenleft" format="1">
  <advance width="338"/>
  <unicode hex="0028"/>
  <outline>
    <contour>
      <point x="358" y="-196" type="line"/>
      <point x="245" y="-58"/>
      <point x="194" y="125"/>
      <point x="194" y="255" type="curve" smooth="yes"/>
      <point x="194" y="390"/>
      <point x="246" y="582"/>
      <point x="348" y="707" type="curve"/>
      <point x="197" y="707" type="line"/>
      <point x="97" y="587"/>
      <point x="40" y="439"/>
      <point x="40" y="259" type="curve" smooth="yes"/>
      <point x="40" y="83"/>
      <point x="96" y="-63"/>
      <point x="203" y="-196" type="curve"/>
    </contour>
  </outline>
</glyph>
<glyph name="slash" format="1">
  <advance width="464"/>
  <unicode hex="002F"/>
  <outline>
    <contour>
      <point x="149" y="-103" type="line"/>
      <point x="509" y="707" type="line"/>
      <point x="357" y="707" type="line"/>
      <point x="-2" y="-103" type="line"/>
    </contour>
  </outline>
</glyph>
<glyph name="less" format="1">
  <advance width="589"/>
  <unicode hex="003C"/>
  <outline>
    <contour>
      <point x="544" y="237" type="line"/>
      <point x="190" y="340" type="line"/>
      <point x="544" y="443" type="line"/>
      <point x="544" y="587" type="line"/>
      <point x="45" y="409" type="line"/>
      <point x="45" y="271" type="line"/>
      <point x="544" y="93" type="line"/>
    </contour>
  </outline>
</glyph>
<glyph name="greater" format="1">
  <advance width="589"/>
  <unicode hex="003E"/>
  <outline>
    <contour>
      <point x="544" y="271" type="line"/>
      <point x="544" y="409" type="line"/>
      <point x="45" y="587" type="line"/>
      <point x="45" y="443" type="line"/>
      <point x="399" y="340" type="line"/>
      <point x="45" y="237" type="line"/>
      <point x="45" y="93" type="line"/>
    </contour>
  </outline>
</glyph>
<glyph name="K" format="1">
  <advance width="662"/>
  <unicode hex="004B"/>
  <outline>
    <contour>
      <point x="645" y="0" type="line"/>
      <point x="406" y="337" type="line"/>
      <point x="226" y="335" type="line"/>
      <point x="452" y="0" type="line"/>
    </contour>
    <contour>
      <point x="219" y="0" type="line"/>
      <point x="219" y="674" type="line"/>
      <point x="65" y="674" type="line"/>
      <point x="65" y="0" type="line"/>
    </contour>
    <contour>
      <point x="406" y="337" type="line"/>
      <point x="627" y="674" type="line"/>
      <point x="444" y="674" type="line"/>
      <point x="226" y="335" type="line"/>
    </contour>
  </outline>
</glyph>
<glyph name="N" format="1">
  <advance width="697"/>
  <unicode hex="004E"/>
  <outline>
    <contour>
      <point x="219" y="0" type="line"/>
      <point x="219" y="279" type="line" smooth="yes"/>
      <point x="219" y="398"/>
      <point x="204" y="488"/>
      <point x="204" y="488" type="curve"/>
      <point x="204" y="488"/>
      <point x="231" y="401"/>
      <point x="302" y="279" type="curve" smooth="yes"/>
      <point x="463" y="0" type="line"/>
      <point x="632" y="0" type="line"/>
      <point x="632" y="674" type="line"/>
      <point x="478" y="674" type="line"/>
      <point x="478" y="395" type="line" smooth="yes"/>
      <point x="478" y="264"/>
      <point x="488" y="190"/>
      <point x="488" y="190" type="curve"/>
      <point x="488" y="190"/>
      <point x="466" y="262"/>
      <point x="391" y="395" type="curve" smooth="yes"/>
      <point x="234" y="674" type="line"/>
      <point x="65" y="674" type="line"/>
      <point x="65" y="0" type="line"/>
    </contour>
  </outline>
</glyph>
<glyph name="U" format="1">
  <advance width="668"/>
  <unicode hex="0055"/>
  <outline>
    <contour>
      <point x="497" y="-10"/>
      <point x="608" y="81"/>
      <point x="608" y="261" type="curve"/>
      <point x="608" y="674" type="line"/>
      <point x="454" y="674" type="line"/>
      <point x="454" y="260" type="line"/>
      <point x="454" y="158"/>
      <point x="400" y="130"/>
      <point x="334" y="130" type="curve" smooth="yes"/>
      <point x="271" y="130"/>
      <point x="214" y="158"/>
      <point x="214" y="255" type="curve"/>
      <point x="214" y="674" type="line"/>
      <point x="60" y="674" type="line"/>
      <point x="60" y="254" type="line"/>
      <point x="60" y="81"/>
      <point x="174" y="-10"/>
      <point x="334" y="-10" type="curve" smooth="yes"/>
    </contour>
  </outline>
</glyph>
<glyph name="V" format="1">
  <advance width="659"/>
  <unicode hex="0056"/>
  <outline>
    <contour>
      <point x="413" y="0" type="line"/>
      <point x="640" y="674" type="line"/>
      <point x="476" y="674" type="line"/>
      <point x="395" y="405" type="line" smooth="yes"/>
      <point x="346" y="243"/>
      <point x="330" y="139"/>
      <point x="330" y="139" type="curve"/>
      <point x="330" y="139"/>
      <point x="315" y="243"/>
      <point x="266" y="405" type="curve" smooth="yes"/>
      <point x="185" y="674" type="line"/>
      <point x="19" y="674" type="line"/>
      <point x="243" y="0" type="line"/>
    </contour>
  </outline>
</glyph>
<glyph name="Y" format="1">
  <advance width="643"/>
  <unicode hex="0059"/>
  <outline>
    <contour>
      <point x="379" y="215" type="line"/>
      <point x="630" y="674" type="line"/>
      <point x="451" y="674" type="line"/>
      <point x="407" y="576" type="line" smooth="yes"/>
      <point x="329" y="405"/>
      <point x="319" y="360"/>
      <point x="319" y="360" type="curve"/>
      <point x="319" y="360"/>
      <point x="305" y="405"/>
      <point x="234" y="576" type="curve" smooth="yes"/>
      <point x="193" y="674" type="line"/>
      <point x="13" y="674" type="line"/>
      <point x="260" y="215" type="line"/>
    </contour>
    <contour>
      <point x="397" y="0" type="line"/>
      <point x="397" y="252" type="line"/>
      <point x="243" y="252" type="line"/>
      <point x="243" y="0" type="line"/>
    </contour>
  </outline>
</glyph>
<glyph name="backslash" format="1">
  <advance width="464"/>
  <unicode hex="005C"/>
  <outline>
    <contour>
      <point x="466" y="-103" type="line"/>
      <point x="107" y="707" type="line"/>
      <point x="-45" y="707" type="line"/>
      <point x="315" y="-103" type="line"/>
    </contour>
  </outline>
</glyph>
<glyph name="e" format="1">
  <advance width="533"/>
  <unicode hex="0065"/>
  <outline>
    <contour>
      <point x="350" y="-5"/>
      <point x="421" y="5"/>
      <point x="458" y="29" type="curve"/>
      <point x="458" y="151" type="line"/>
      <point x="426" y="127"/>
      <point x="384" y="108"/>
      <point x="324" y="108" type="curve" smooth="yes"/>
      <point x="236" y="108"/>
      <point x="173" y="160"/>
      <point x="173" y="254" type="curve"/>
      <point x="173" y="356"/>
      <point x="224" y="401"/>
      <point x="275" y="401" type="curve" smooth="yes"/>
      <point x="331" y="401"/>
      <point x="349" y="361"/>
      <point x="353" y="312" type="curve"/>
      <point x="353" y="300" type="line"/>
      <point x="127" y="300" type="line"/>
      <point x="127" y="196" type="line"/>
      <point x="481" y="196" type="line"/>
      <point x="484" y="217"/>
      <point x="489" y="253"/>
      <point x="489" y="275" type="curve" smooth="yes"/>
      <point x="489" y="437"/>
      <point x="400" y="512"/>
      <point x="269" y="512" type="curve" smooth="yes"/>
      <point x="143" y="512"/>
      <point x="35" y="422"/>
      <point x="35" y="254" type="curve" smooth="yes"/>
      <point x="35" y="107"/>
      <point x="127" y="-5"/>
      <point x="299" y="-5" type="curve" smooth="yes"/>
    </contour>
  </outline>
</glyph>
<glyph name="f" format="1">
  <advance width="346"/>
  <unicode hex="0066"/>
  <outline>
    <contour>
      <point x="241" y="0" type="line"/>
      <point x="241" y="526" type="line" smooth="yes"/>
      <point x="241" y="587"/>
      <point x="268" y="603"/>
      <point x="314" y="603" type="curve" smooth="yes"/>
      <point x="330" y="603"/>
      <point x="346" y="600"/>
      <point x="366" y="592" type="curve"/>
      <point x="366" y="710" type="line"/>
      <point x="340" y="719"/>
      <point x="316" y="720"/>
      <point x="290" y="720" type="curve" smooth="yes"/>
      <point x="169" y="720"/>
      <point x="96" y="650"/>
      <point x="96" y="526" type="curve" smooth="yes"/>
      <point x="96" y="0" type="line"/>
    </contour>
    <contour>
      <point x="336" y="400" type="line"/>
      <point x="336" y="507" type="line"/>
      <point x="30" y="507" type="line"/>
      <point x="30" y="400" type="line"/>
    </contour>
  </outline>
</glyph>
<glyph name="i" format="1">
  <advance width="276"/>
  <unicode hex="0069"/>
  <outline>
    <contour>
      <point x="211" y="0" type="line"/>
      <point x="211" y="507" type="line"/>
      <point x="65" y="507" type="line"/>
      <point x="65" y="0" type="line"/>
    </contour>
    <contour>
      <point x="185" y="569"/>
      <point x="223" y="607"/>
      <point x="223" y="654" type="curve" smooth="yes"/>
      <point x="223" y="701"/>
      <point x="185" y="739"/>
      <point x="138" y="739" type="curve" smooth="yes"/>
      <point x="91" y="739"/>
      <point x="53" y="701"/>
      <point x="53" y="654" type="curve" smooth="yes"/>
      <point x="53" y="607"/>
      <point x="91" y="569"/>
      <point x="138" y="569" type="curve" smooth="yes"/>
    </contour>
  </outline>
</glyph>
<glyph name="x" format="1">
  <advance width="526"/>
  <unicode hex="0078"/>
  <outline>
    <contour>
      <point x="174" y="0" type="line"/>
      <point x="265" y="152" type="line"/>
      <point x="350" y="0" type="line"/>
      <point x="509" y="0" type="line"/>
      <point x="340" y="253" type="line"/>
      <point x="522" y="507" type="line"/>
      <point x="362" y="507" type="line"/>
      <point x="271" y="356" type="line"/>
      <point x="189" y="507" type="line"/>
      <point x="27" y="507" type="line"/>
      <point x="197" y="254" type="line"/>
      <point x="16" y="0" type="line"/>
    </contour>
  </outline>
</glyph>
<glyph name="bar" format="1">
  <advance width="280"/>
  <unicode hex="007C"/>
  <outline>
    <contour>
      <point x="210" y="-194" type="line"/>
      <point x="210" y="695" type="line"/>
      <point x="70" y="695" type="line"/>
      <point x="70" y="-194" type="line"/>
    </contour>
  </outline>
</glyph>
<glyph name="brokenbar" format="1">
  <advance width="280"/>
  <unicode hex="00A6"/>
  <outline>
    <contour>
      <point x="210" y="369" type="line"/>
      <point x="210" y="707" type="line"/>
      <point x="70" y="707" type="line"/>
      <point x="70" y="369" type="line"/>
    </contour>
    <contour>
      <point x="210" y="-117" type="line"/>
      <point x="210" y="221" type="line"/>
      <point x="70" y="221" type="line"/>
      <point x="70" y="-117" type="line"/>
    </contour>
  </outline>
</glyph>
<glyph name="degree" format="1">
  <advance width="440"/>
  <unicode hex="00B0"/>
  <outline>
    <contour>
      <point x="325" y="305"/>
      <point x="410" y="390"/>
      <point x="410" y="495" type="curve" smooth="yes"/>
      <point x="410" y="600"/>
      <point x="325" y="685"/>
      <point x="220" y="685" type="curve" smooth="yes"/>
      <point x="115" y="685"/>
      <point x="30" y="600"/>
      <point x="30" y="495" type="curve" smooth="yes"/>
      <point x="30" y="390"/>
      <point x="115" y="305"/>
      <point x="220" y="305" type="curve" smooth="yes"/>
    </contour>
    <contour>
      <point x="172" y="407"/>
      <point x="132" y="447"/>
      <point x="132" y="495" type="curve" smooth="yes"/>
      <point x="132" y="543"/>
      <point x="172" y="583"/>
      <point x="220" y="583" type="curve" smooth="yes"/>
      <point x="268" y="583"/>
      <point x="308" y="543"/>
      <point x="308" y="495" type="curve" smooth="yes"/>
      <point x="308" y="447"/>
      <point x="268" y="407"/>
      <point x="220" y="407" type="curve" smooth="yes"/>
    </contour>
  </outline>
</glyph>
<glyph name="acute" format="1">
  <advance width="500"/>
  <unicode hex="00B4"/>
  <outline>
    <contour>
      <point x="255" y="621" type="line"/>
      <point x="366" y="798" type="line"/>
      <point x="220" y="798" type="line"/>
      <point x="134" y="621" type="line"/>
    </contour>
  </outline>
</glyph>
<glyph name="cedilla" format="1">
  <advance width="500"/>
  <unicode hex="00B8"/>
  <outline>
    <contour>
      <point x="284" y="-268"/>
      <point x="339" y="-203"/>
      <point x="339" y="-125" type="curve" smooth="yes"/>
      <point x="339" y="-99"/>
      <point x="334" y="-70"/>
      <point x="322" y="-51" type="curve"/>
      <point x="209" y="-51" type="line"/>
      <point x="219" y="-64"/>
      <point x="235" y="-87"/>
      <point x="235" y="-113" type="curve" smooth="yes"/>
      <point x="235" y="-152"/>
      <point x="209" y="-177"/>
      <point x="160" y="-177" type="curve"/>
      <point x="160" y="-268" type="line"/>
    </contour>
  </outline>
</glyph>
<glyph name="guillemotright" format="1">
  <advance width="591"/>
  <unicode hex="00BB"/>
  <outline>
    <contour>
      <point x="565" y="253" type="line"/>
      <point x="413" y="415" type="line"/>
      <point x="261" y="415" type="line"/>
      <point x="407" y="253" type="line"/>
    </contour>
    <contour>
      <point x="193" y="91" type="line"/>
      <point x="345" y="253" type="line"/>
      <point x="187" y="253" type="line"/>
      <point x="41" y="91" type="line"/>
    </contour>
    <contour>
      <point x="345" y="253" type="line"/>
      <point x="193" y="415" type="line"/>
      <point x="41" y="415" type="line"/>
      <point x="187" y="253" type="line"/>
    </contour>
    <contour>
      <point x="413" y="91" type="line"/>
      <point x="565" y="253" type="line"/>
      <point x="407" y="253" type="line"/>
      <point x="261" y="91" type="line"/>
    </contour>
  </outline>
</glyph>
<glyph name="Oslash" format="1">
  <advance width="714"/>
  <unicode hex="00D8"/>
  <outline>
    <contour>
      <point x="566" y="-7"/>
      <point x="694" y="133"/>
      <point x="694" y="339" type="curve" smooth="yes"/>
      <point x="694" y="546"/>
      <point x="567" y="685"/>
      <point x="366" y="685" type="curve" smooth="yes"/>
      <point x="166" y="685"/>
      <point x="38" y="545"/>
      <point x="38" y="339" type="curve" smooth="yes"/>
      <point x="38" y="132"/>
      <point x="165" y="-7"/>
      <point x="366" y="-7" type="curve" smooth="yes"/>
    </contour>
    <contour>
      <point x="262" y="125"/>
      <point x="196" y="202"/>
      <point x="196" y="339" type="curve" smooth="yes"/>
      <point x="196" y="470"/>
      <point x="262" y="553"/>
      <point x="366" y="553" type="curve" smooth="yes"/>
      <point x="470" y="553"/>
      <point x="536" y="475"/>
      <point x="536" y="339" type="curve" smooth="yes"/>
      <point x="536" y="208"/>
      <point x="470" y="125"/>
      <point x="366" y="125" type="curve" smooth="yes"/>
    </contour>
    <contour>
      <point x="185" y="-7" type="line"/>
      <point x="695" y="684" type="line"/>
      <point x="550" y="684" type="line"/>
      <point x="39" y="-7" type="line"/>
    </contour>
  </outline>
</glyph>
<glyph name="dotlessi" format="1">
  <advance width="276"/>
  <unicode hex="0131"/>
  <outline>
    <contour>
      <point x="211" y="0" type="line"/>
      <point x="211" y="507" type="line"/>
      <point x="65" y="507" type="line"/>
      <point x="65" y="0" type="line"/>
    </contour>
  </outline>
</glyph>
<glyph name="lcommaaccent" format="1">
  <advance width="276"/>
  <unicode hex="013C"/>
  <outline>
    <contour>
      <point x="211" y="0" type="line"/>
      <point x="211" y="707" type="line"/>
      <point x="65" y="707" type="line"/>
      <point x="65" y="0" type="line"/>
    </contour>
    <contour>
      <point x="95" y="-262" type="line"/>
      <point x="211" y="-51" type="line"/>
      <point x="60" y="-51" type="line"/>
      <point x="-11" y="-262" type="line"/>
    </contour>
  </outline>
</glyph>
<glyph name="lcaron" format="1">
  <advance width="276"/>
  <unicode hex="013E"/>
  <outline>
    <contour>
      <point x="211" y="0" type="line"/>
      <point x="211" y="707" type="line"/>
      <point x="65" y="707" type="line"/>
      <point x="65" y="0" type="line"/>
    </contour>
    <contour>
      <point x="375" y="498" type="line"/>
      <point x="491" y="709" type="line"/>
      <point x="340" y="709" type="line"/>
      <point x="269" y="498" type="line"/>
    </contour>
  </outline>
</glyph>
<glyph name="Lslash" format="1">
  <advance width="563"/>
  <unicode hex="0141"/>
  <outline>
    <contour>
      <point x="443" y="383" type="line"/>
      <point x="443" y="504" type="line"/>
      <point x="45" y="281" type="line"/>
      <point x="45" y="160" type="line"/>
    </contour>
    <contour>
      <point x="528" y="0" type="line"/>
      <point x="528" y="135" type="line"/>
      <point x="183" y="135" type="line"/>
      <point x="183" y="0" type="line"/>
    </contour>
    <contour>
      <point x="279" y="0" type="line"/>
      <point x="279" y="674" type="line"/>
      <point x="125" y="674" type="line"/>
      <point x="125" y="0" type="line"/>
    </contour>
  </outline>
</glyph>
<glyph name="rcommaaccent" format="1">
  <advance width="370"/>
  <unicode hex="0157"/>
  <outline>
    <contour>
      <point x="86" y="-262" type="line"/>
      <point x="202" y="-51" type="line"/>
      <point x="51" y="-51" type="line"/>
      <point x="-20" y="-262" type="line"/>
    </contour>
    <component base="r"/>
  </outline>
</glyph>
<glyph name="Tcedilla" format="1">
  <advance width="544"/>
  <unicode hex="0162"/>
  <outline>
    <contour>
      <point x="350" y="0" type="line"/>
      <point x="350" y="653" type="line"/>
      <point x="195" y="653" type="line"/>
      <point x="195" y="0" type="line"/>
    </contour>
    <contour>
      <point x="514" y="550" type="line"/>
      <point x="514" y="674" type="line"/>
      <point x="30" y="674" type="line"/>
      <point x="30" y="550" type="line"/>
    </contour>
    <component base="cedilla" xOffset="10"/>
  </outline>
</glyph>
<glyph name="Tcommaaccent" format="1">
  <advance width="544"/>
  <unicode hex="021A"/>
  <outline>
    <contour>
      <point x="350" y="0" type="line"/>
      <point x="350" y="653" type="line"/>
      <point x="195" y="653" type="line"/>
      <point x="195" y="0" type="line"/>
    </contour>
    <contour>
      <point x="231" y="-262" type="line"/>
      <point x="347" y="-51" type="line"/>
      <point x="196" y="-51" type="line"/>
      <point x="125" y="-262" type="line"/>
    </contour>
    <contour>
      <point x="514" y="550" type="line"/>
      <point x="514" y="674" type="line"/>
      <point x="30" y="674" type="line"/>
      <point x="30" y="550" type="line"/>
    </contour>
  </outline>
</glyph>
<glyph name="hungarumlaut" format="1">
  <advance width="500"/>
  <unicode hex="02DD"/>
  <outline>
    <contour>
      <point x="332" y="621" type="line"/>
      <point x="463" y="798" type="line"/>
      <point x="318" y="798" type="line"/>
      <point x="224" y="621" type="line"/>
    </contour>
    <contour>
      <point x="145" y="621" type="line"/>
      <point x="256" y="798" type="line"/>
      <point x="123" y="798" type="line"/>
      <point x="37" y="621" type="line"/>
    </contour>
  </outline>
</glyph>
<glyph name="endash" format="1">
  <advance width="555"/>
  <unicode hex="2013"/>
  <outline>
    <contour>
      <point x="510" y="215" type="line"/>
      <point x="510" y="322" type="line"/>
      <point x="45" y="322" type="line"/>
      <point x="45" y="215" type="line"/>
    </contour>
  </outline>
</glyph>
<glyph name="quoteright" format="1">
  <advance width="267"/>
  <unicode hex="2019"/>
  <outline>
    <contour>
      <point x="154" y="433" type="line"/>
      <point x="290" y="694" type="line"/>
      <point x="129" y="694" type="line"/>
      <point x="28" y="433" type="line"/>
    </contour>
  </outline>
</glyph>
<glyph name="quotedblright" format="1">
  <advance width="452"/>
  <unicode hex="201D"/>
  <outline>
    <contour>
      <point x="149" y="433" type="line"/>
      <point x="270" y="694" type="line"/>
      <point x="124" y="694" type="line"/>
      <point x="28" y="433" type="line"/>
    </contour>
    <contour>
      <point x="334" y="433" type="line"/>
      <point x="475" y="694" type="line"/>
      <point x="317" y="694" type="line"/>
      <point x="213" y="433" type="line"/>
    </contour>
  </outline>
</glyph>
<glyph name="dagger" format="1">
  <advance width="559"/>
  <unicode hex="2020"/>
  <outline>
    <contour>
      <point x="344" y="0" type="line"/>
      <point x="344" y="674" type="line"/>
      <point x="214" y="674" type="line"/>
      <point x="214" y="0" type="line"/>
    </contour>
    <contour>
      <point x="529" y="405" type="line"/>
      <point x="529" y="523" type="line"/>
      <point x="30" y="523" type="line"/>
      <point x="30" y="405" type="line"/>
    </contour>
  </outline>
</glyph>
<glyph name="daggerdbl" format="1">
  <advance width="589"/>
  <unicode hex="2021"/>
  <outline>
    <contour>
      <point x="359" y="0" type="line"/>
      <point x="359" y="674" type="line"/>
      <point x="229" y="674" type="line"/>
      <point x="229" y="0" type="line"/>
    </contour>
    <contour>
      <point x="544" y="151" type="line"/>
      <point x="544" y="269" type="line"/>
      <point x="45" y="269" type="line"/>
      <point x="45" y="151" type="line"/>
    </contour>
    <contour>
      <point x="544" y="405" type="line"/>
      <point x="544" y="523" type="line"/>
      <point x="45" y="523" type="line"/>
      <point x="45" y="405" type="line"/>
    </contour>
  </outline>
</glyph>
<glyph name="guilsinglleft" format="1">
  <advance width="371"/>
  <unicode hex="2039"/>
  <outline>
    <contour>
      <point x="184" y="253" type="line"/>
      <point x="330" y="415" type="line"/>
      <point x="178" y="415" type="line"/>
      <point x="26" y="253" type="line"/>
    </contour>
    <contour>
      <point x="330" y="91" type="line"/>
      <point x="184" y="253" type="line"/>
      <point x="26" y="253" type="line"/>
      <point x="178" y="91" type="line"/>
    </contour>
  </outline>
</glyph>
<glyph name="guilsinglright" format="1">
  <advance width="371"/>
  <unicode hex="203A"/>
  <outline>
    <contour>
      <point x="345" y="253" type="line"/>
      <point x="193" y="415" type="line"/>
      <point x="41" y="415" type="line"/>
      <point x="187" y="253" type="line"/>
    </contour>
    <contour>
      <point x="193" y="91" type="line"/>
      <point x="345" y="253" type="line"/>
      <point x="187" y="253" type="line"/>
      <point x="41" y="91" type="line"/>
    </contour>
  </outline>
</glyph>
<glyph name="bulletoperator" format="1">
  <advance width="316"/>
  <unicode hex="2219"/>
  <outline>
    <contour>
      <point x="207" y="248"/>
      <point x="247" y="288"/>
      <point x="247" y="337" type="curve" smooth="yes"/>
      <point x="247" y="386"/>
      <point x="207" y="426"/>
      <point x="158" y="426" type="curve" smooth="yes"/>
      <point x="109" y="426"/>
      <point x="69" y="386"/>
      <point x="69" y="337" type="curve" smooth="yes"/>
      <point x="69" y="288"/>
      <point x="109" y="248"/>
      <point x="158" y="248" type="curve" smooth="yes"/>
    </contour>
  </outline>
</glyph>
<glyph name="notequal" format="1">
  <advance width="589"/>
  <unicode hex="2260"/>
  <outline>
    <contour>
      <point x="213" y="86" type="line"/>
      <point x="451" y="594" type="line"/>
      <point x="376" y="594" type="line"/>
      <point x="138" y="86" type="line"/>
    </contour>
    <contour>
      <point x="544" y="166" type="line"/>
      <point x="544" y="282" type="line"/>
      <point x="45" y="282" type="line"/>
      <point x="45" y="166" type="line"/>
    </contour>
    <contour>
      <point x="544" y="398" type="line"/>
      <point x="544" y="514" type="line"/>
      <point x="45" y="514" type="line"/>
      <point x="45" y="398" type="line"/>
    </contour>
  </outline>
</glyph>
<glyph name="fl" format="1">
  <advance width="593"/>
  <unicode hex="FB02"/>
  <outline>
    <contour>
      <point x="241" y="0" type="line"/>
      <point x="241" y="526" type="line" smooth="yes"/>
      <point x="241" y="589"/>
      <point x="270" y="603"/>
      <point x="319" y="603" type="curve" smooth="yes"/>
      <point x="386" y="603"/>
      <point x="480" y="566"/>
      <point x="533" y="529" type="curve"/>
      <point x="533" y="657" type="line"/>
      <point x="455" y="694"/>
      <point x="385" y="720"/>
      <point x="290" y="720" type="curve" smooth="yes"/>
      <point x="169" y="720"/>
      <point x="96" y="650"/>
      <point x="96" y="526" type="curve" smooth="yes"/>
      <point x="96" y="0" type="line"/>
    </contour>
    <contour>
      <point x="336" y="400" type="line"/>
      <point x="336" y="507" type="line"/>
      <point x="30" y="507" type="line"/>
      <point x="30" y="400" type="line"/>
    </contour>
    <contour>
      <point x="533" y="0" type="line"/>
      <point x="533" y="651" type="line"/>
      <point x="387" y="707" type="line"/>
      <point x="387" y="0" type="line"/>
    </contour>
  </outline>
</glyph>
<glyph name="three.superior" format="1">
  <advance width="353"/>
  <outline>
    <contour>
      <point x="260" y="388"/>
      <point x="318" y="438"/>
      <point x="318" y="510" type="curve" smooth="yes"/>
      <point x="318" y="572"/>
      <point x="277" y="605"/>
      <point x="230" y="610" type="curve"/>
      <point x="280" y="620"/>
      <point x="311" y="655"/>
      <point x="311" y="708" type="curve" smooth="yes"/>
      <point x="311" y="778"/>
      <point x="254" y="829"/>
      <point x="158" y="829" type="curve" smooth="yes"/>
      <point x="120" y="829"/>
      <point x="82" y="820"/>
      <point x="51" y="802" type="curve"/>
      <point x="51" y="701" type="line"/>
      <point x="80" y="723"/>
      <point x="118" y="736"/>
      <point x="148" y="736" type="curve" smooth="yes"/>
      <point x="179" y="736"/>
      <point x="200" y="723"/>
      <point x="200" y="695" type="curve" smooth="yes"/>
      <point x="200" y="666"/>
      <point x="168" y="654"/>
      <point x="123" y="654" type="curve"/>
      <point x="109" y="654" type="line"/>
      <point x="109" y="565" type="line"/>
      <point x="124" y="565" type="line" smooth="yes"/>
      <point x="193" y="565"/>
      <point x="209" y="546"/>
      <point x="209" y="524" type="curve" smooth="yes"/>
      <point x="209" y="499"/>
      <point x="187" y="479"/>
      <point x="148" y="479" type="curve" smooth="yes"/>
      <point x="106" y="479"/>
      <point x="69" y="491"/>
      <point x="35" y="509" type="curve"/>
      <point x="35" y="415" type="line"/>
      <point x="68" y="397"/>
      <point x="125" y="388"/>
      <point x="165" y="388" type="curve" smooth="yes"/>
    </contour>
  </outline>
</glyph>
